<?xml version="1.0" encoding="UTF-8" standalone="no"?>
<svg version="1.1" xmlns="http://www.w3.org/2000/svg" xmlns:xlink="http://www.w3.org/1999/xlink" xmlns:i="http://ns.adobe.com/AdobeIllustrator/10.0/" width="28.8" height="26.24">
	<path id="dp_path001" transform="matrix(1,0,0,1,-366.996,-444.748)" fill="none" fill-rule="evenodd" stroke="black" stroke-width="4" d="M 381.237,447.832 L 383.255,450.199 L 384.628,451.9 L 386.888,451.86 L 390.096,451.88 L 389.404,454.852 L 388.859,456.932 L 390.303,458.583 L 392.284,460.975 L 389.404,462.313 L 387.349,463.207 L 386.888,465.305 L 386.153,468.268 L 383.255,466.967 L 381.237,466 L 379.22,466.967 L 376.321,468.268 L 375.587,465.305 L 375.125,463.207 L 373.071,462.313 L 370.191,460.975 L 372.172,458.583 L 373.616,456.932 L 373.071,454.852 L 372.379,451.88 L 375.587,451.86 L 377.847,451.9 L 379.22,450.199 Z "/>
</svg>