<?xml version="1.0" encoding="UTF-8" standalone="no"?>
<svg version="1.1" xmlns="http://www.w3.org/2000/svg" xmlns:xlink="http://www.w3.org/1999/xlink" xmlns:i="http://ns.adobe.com/AdobeIllustrator/10.0/" width="28.8" height="26.24">
	<path id="dp_path001" transform="matrix(1,0,0,1,-121.196,-447.948)" fill="#f4b183" fill-rule="evenodd" stroke="black" stroke-width="4" d="M 135.437,451.032 L 137.455,453.399 L 138.828,455.1 L 141.088,455.06 L 144.296,455.08 L 143.604,458.052 L 143.059,460.132 L 144.503,461.783 L 146.484,464.175 L 143.604,465.513 L 141.549,466.407 L 141.088,468.505 L 140.353,471.468 L 137.455,470.167 L 135.437,469.2 L 133.42,470.167 L 130.521,471.468 L 129.787,468.505 L 129.325,466.407 L 127.271,465.513 L 124.391,464.175 L 126.372,461.783 L 127.816,460.132 L 127.271,458.052 L 126.579,455.08 L 129.787,455.06 L 132.047,455.1 L 133.42,453.399 Z "/>
</svg>