<?xml version="1.0" encoding="UTF-8" standalone="no"?>
<svg version="1.1" xmlns="http://www.w3.org/2000/svg" xmlns:xlink="http://www.w3.org/1999/xlink" xmlns:i="http://ns.adobe.com/AdobeIllustrator/10.0/" width="28.8" height="26.24">
	<path id="dp_path001" transform="matrix(1,0,0,1,-219.173,-447.948)" fill="none" fill-rule="evenodd" stroke="#56b900" stroke-width="4" d="M 233.415,451.032 L 235.432,453.399 L 236.805,455.1 L 239.065,455.06 L 242.273,455.08 L 241.581,458.052 L 241.036,460.132 L 242.48,461.783 L 244.461,464.175 L 241.581,465.513 L 239.527,466.407 L 239.065,468.505 L 238.331,471.468 L 235.432,470.167 L 233.415,469.2 L 231.397,470.167 L 228.499,471.468 L 227.764,468.505 L 227.303,466.407 L 225.248,465.513 L 222.368,464.175 L 224.349,461.783 L 225.793,460.132 L 225.248,458.052 L 224.556,455.08 L 227.764,455.06 L 230.024,455.1 L 231.397,453.399 Z "/>
</svg>