<?xml version="1.0" encoding="UTF-8" standalone="no"?>
<svg version="1.1" xmlns="http://www.w3.org/2000/svg" xmlns:xlink="http://www.w3.org/1999/xlink" xmlns:i="http://ns.adobe.com/AdobeIllustrator/10.0/" width="28.8" height="26.24">
	<path id="dp_path001" transform="matrix(1,0,0,1,-162.196,-447.948)" fill="none" fill-rule="evenodd" stroke="#8c8c8c" stroke-width="4" d="M 176.437,451.032 L 178.455,453.399 L 179.828,455.1 L 182.088,455.06 L 185.296,455.08 L 184.604,458.052 L 184.059,460.132 L 185.503,461.783 L 187.484,464.175 L 184.604,465.513 L 182.549,466.407 L 182.088,468.505 L 181.353,471.468 L 178.455,470.167 L 176.437,469.2 L 174.42,470.167 L 171.521,471.468 L 170.787,468.505 L 170.325,466.407 L 168.271,465.513 L 165.391,464.175 L 167.372,461.783 L 168.816,460.132 L 168.271,458.052 L 167.579,455.08 L 170.787,455.06 L 173.047,455.1 L 174.42,453.399 Z "/>
</svg>