<?xml version="1.0" encoding="UTF-8" standalone="no"?>
<svg version="1.1" xmlns="http://www.w3.org/2000/svg" xmlns:xlink="http://www.w3.org/1999/xlink" xmlns:i="http://ns.adobe.com/AdobeIllustrator/10.0/" width="28.8" height="26.24">
	<path id="dp_path001" transform="matrix(1,0,0,1,-319.659,-445.876)" fill="none" fill-rule="evenodd" stroke="#ff0019" stroke-width="4" d="M 333.9,448.96 L 335.917,451.327 L 337.291,453.028 L 339.551,452.988 L 342.759,453.008 L 342.067,455.98 L 341.521,458.06 L 342.965,459.711 L 344.947,462.103 L 342.067,463.441 L 340.012,464.335 L 339.551,466.433 L 338.816,469.396 L 335.917,468.095 L 333.9,467.128 L 331.883,468.095 L 328.984,469.396 L 328.249,466.433 L 327.788,464.335 L 325.733,463.441 L 322.853,462.103 L 324.835,459.711 L 326.279,458.06 L 325.733,455.98 L 325.041,453.008 L 328.249,452.988 L 330.509,453.028 L 331.883,451.327 Z "/>
</svg>