<?xml version="1.0" encoding="UTF-8" standalone="no"?>
<svg version="1.1" xmlns="http://www.w3.org/2000/svg" xmlns:xlink="http://www.w3.org/1999/xlink" xmlns:i="http://ns.adobe.com/AdobeIllustrator/10.0/" width="28.8" height="26.24">
	<path id="dp_path001" transform="matrix(1,0,0,1,-273.041,-446.912)" fill="none" fill-rule="evenodd" stroke="#f9e800" stroke-width="4" d="M 287.283,449.996 L 289.3,452.363 L 290.673,454.064 L 292.933,454.024 L 296.141,454.044 L 295.449,457.016 L 294.904,459.096 L 296.348,460.747 L 298.329,463.139 L 295.449,464.477 L 293.395,465.371 L 292.933,467.469 L 292.199,470.432 L 289.3,469.131 L 287.283,468.164 L 285.265,469.131 L 282.367,470.432 L 281.632,467.469 L 281.171,465.371 L 279.116,464.477 L 276.236,463.139 L 278.217,460.747 L 279.661,459.096 L 279.116,457.016 L 278.424,454.044 L 281.632,454.024 L 283.892,454.064 L 285.265,452.363 Z "/>
</svg>